<?xml version="1.0" standalone="no"?>
<!DOCTYPE svg PUBLIC "-//W3C//DTD SVG 20010904//EN"
 "http://www.w3.org/TR/2001/REC-SVG-20010904/DTD/svg10.dtd">
<svg version="1.0" xmlns="http://www.w3.org/2000/svg"
 width="1024.000000pt" height="1024.000000pt" viewBox="0 0 1024.000000 1024.000000"
 preserveAspectRatio="xMidYMid meet">
<metadata>
Created by potrace 1.16, written by Peter Selinger 2001-2019
</metadata>
<g transform="translate(0.000000,1024.000000) scale(0.100000,-0.100000)"
fill="#000000" stroke="none">
<path d="M0 5120 l0 -5120 5120 0 5120 0 0 5120 0 5120 -5120 0 -5120 0 0
-5120z m5415 2587 c111 -28 244 -74 290 -101 17 -10 21 -14 10 -11 -214 68
-290 80 -500 80 -202 -1 -290 -14 -459 -70 -213 -69 -394 -182 -560 -348 -150
-149 -234 -277 -323 -487 -9 -20 -10 -11 -8 45 l4 70 -14 -40 c-14 -38 -14
-38 -12 -8 2 18 -1 30 -5 27 -14 -9 -60 5 -53 16 3 5 13 7 23 4 10 -4 13 -3 6
3 -6 4 -14 21 -18 37 -6 23 -9 27 -17 15 -12 -19 -11 -32 1 -24 6 3 10 1 10
-4 0 -10 -14 -15 -33 -12 -5 1 -6 -9 -2 -21 4 -16 4 -19 -3 -9 -8 11 -11 9
-17 -8 -4 -13 -9 -20 -12 -18 -12 13 124 250 139 241 7 -4 8 -2 4 5 -10 16
129 186 215 264 210 187 475 317 749 367 156 29 444 22 585 -13z m965 -89 c0
-13 -9 -124 -20 -248 -10 -124 -24 -288 -31 -365 -13 -154 -20 -181 -38 -147
-17 31 -130 172 -139 172 -4 0 -16 -15 -28 -33 -82 -127 -357 -419 -538 -570
-355 -299 -732 -522 -1080 -639 -32 -10 -61 -17 -64 -14 -3 3 0 6 7 6 17 0 -6
23 -34 34 l-20 8 20 8 c17 6 14 9 -16 15 -20 4 -49 6 -65 4 -46 -3 -66 0 -59
11 8 14 -8 13 -22 -1 -6 -6 -17 -8 -24 -4 -7 5 29 23 92 45 377 134 774 402
1144 774 222 223 462 522 432 537 -7 3 -72 18 -145 34 -73 15 -131 29 -130 30
7 7 744 364 751 365 4 0 7 -10 7 -22z m-840 -532 c0 -106 -8 -159 -22 -150 -6
4 -29 -13 -52 -37 -24 -24 -60 -60 -82 -79 -21 -19 -73 -66 -115 -105 -42 -38
-84 -76 -93 -83 -15 -12 -16 11 -16 268 l0 280 190 0 190 0 0 -94z m-105 -311
c-54 -58 -99 -105 -100 -105 -11 0 5 34 18 42 10 5 15 13 12 19 -4 5 2 12 12
16 23 8 67 54 69 72 2 8 11 21 21 30 10 9 13 10 5 2 -19 -24 -14 -36 8 -16 10
9 18 22 17 29 -1 6 4 10 11 9 6 -2 13 7 13 20 1 17 2 18 6 4 3 -12 -26 -51
-92 -122z m44 106 c-13 -11 -26 -17 -28 -15 -5 5 30 33 43 34 4 0 -2 -9 -15
-19z m-455 -146 c0 -49 -1 -145 -2 -212 l-2 -122 -55 -41 c-31 -23 -61 -38
-67 -34 -6 4 -8 3 -4 -4 8 -13 -60 -56 -79 -48 -9 3 -12 0 -8 -10 3 -10 0 -12
-10 -9 -8 4 -27 -5 -43 -20 l-29 -26 30 18 c16 10 26 12 21 5 -4 -7 -25 -21
-46 -32 -42 -21 -65 -27 -40 -9 12 8 11 10 -5 7 -11 -2 -20 -11 -20 -20 0 -9
-3 -19 -6 -22 -11 -11 -19 173 -19 419 0 133 3 245 7 249 4 3 90 5 192 4 l186
-3 -1 -90z m388 83 c-7 -7 -12 -23 -13 -37 0 -23 -1 -24 -9 -6 -7 18 12 55 29
55 3 0 0 -5 -7 -12z m1199 -273 c1 -127 -20 -225 -70 -330 -128 -264 -420
-516 -816 -705 -172 -83 -265 -118 -437 -169 -269 -78 -446 -105 -708 -104
-168 0 -223 3 -305 20 -229 48 -411 152 -495 283 -18 28 -31 52 -29 55 2 2 22
-5 43 -16 210 -102 437 -148 731 -149 571 -1 1231 220 1662 557 260 203 421
489 400 712 l-5 56 14 -55 c8 -30 14 -100 15 -155z m-2760 164 c-5 -13 -10
-19 -10 -12 -1 15 10 45 15 40 3 -2 0 -15 -5 -28z m1445 -9 c0 -12 -4 -16 -9
-11 -5 5 -6 14 -3 20 10 15 12 14 12 -9z m763 -12 c0 -13 -3 -18 -5 -12 -3 7
-24 -9 -49 -35 -38 -39 -42 -48 -29 -57 13 -10 13 -12 -2 -18 -9 -3 -19 -4
-23 -1 -5 2 -14 -8 -20 -22 -10 -22 -14 -24 -22 -12 -7 12 -9 11 -9 -3 0 -9 4
-19 10 -23 11 -7 2 -35 -12 -35 -7 0 -6 5 1 13 6 8 8 16 5 19 -10 10 -44 -4
-62 -26 -9 -12 -24 -26 -32 -31 -8 -5 44 53 115 128 72 75 131 136 133 136 1
1 2 -9 1 -21z m-739 -21 c0 -1 -28 -29 -62 -62 -35 -33 -49 -44 -33 -25 17 19
34 38 39 41 4 4 4 9 0 11 -5 3 -4 4 3 2 6 -1 19 6 29 17 16 18 24 23 24 16z
m-1493 -49 c-3 -8 -6 -5 -6 6 -1 11 2 17 5 13 3 -3 4 -12 1 -19z m2173 -18 c0
-5 -5 -10 -11 -10 -5 0 -7 5 -4 10 3 6 8 10 11 10 2 0 4 -4 4 -10z m-2183 -22
c-3 -8 -6 -5 -6 6 -1 11 2 17 5 13 3 -3 4 -12 1 -19z m2253 -182 c0 -95 -3
-214 -7 -265 l-6 -91 -51 -31 c-28 -18 -45 -25 -38 -17 6 8 8 19 4 23 -4 5 -1
5 6 1 29 -17 34 16 8 51 -1 1 -62 -29 -136 -67 -74 -39 -138 -70 -142 -70 -3
0 -9 -8 -11 -17 -3 -10 -5 86 -6 212 l-1 230 49 42 c31 27 51 38 54 30 3 -9 8
-9 20 2 15 12 17 11 18 -5 1 -11 1 -23 0 -27 -2 -12 18 2 62 43 22 19 50 44
64 55 14 11 41 34 61 52 20 17 39 30 44 27 4 -3 8 -83 8 -178z m-2263 122 c-3
-8 -6 -5 -6 6 -1 11 2 17 5 13 3 -3 4 -12 1 -19z m719 -265 c-7 -167 -13 -190
-44 -178 -7 3 -11 1 -8 -4 8 -12 -45 -34 -57 -22 -6 6 -3 9 8 8 10 -1 20 5 22
13 3 9 1 11 -4 5 -4 -6 -18 -10 -30 -9 -12 1 -20 -2 -18 -6 7 -11 -22 -20 -42
-13 -11 4 -14 3 -9 -5 5 -8 1 -10 -10 -5 -13 5 -15 3 -9 -8 8 -12 6 -12 -8 0
-13 11 -26 11 -69 1 -84 -18 -84 -18 -62 -36 18 -14 18 -15 -3 -4 -23 11 -23
13 -23 220 l0 210 187 0 186 0 -7 -167z m-909 125 c-3 -7 -5 -2 -5 12 0 14 2
19 5 13 2 -7 2 -19 0 -25z m-147 -39 c-6 -30 -9 -88 -6 -129 l5 -75 -11 55
-11 55 -13 -30 -13 -30 -1 27 c0 29 49 193 56 186 2 -3 -1 -29 -6 -59z m3176
-206 c-14 -54 -37 -130 -51 -168 -31 -84 -135 -278 -171 -320 -18 -21 -21 -23
-10 -5 19 29 21 43 4 35 -7 -4 -4 1 7 10 11 9 19 21 17 27 -2 6 4 18 13 28 8
9 12 20 8 23 -11 12 -23 8 -23 -7 0 -8 -3 -16 -8 -18 -4 -1 -37 -41 -74 -88
-36 -47 -96 -114 -132 -149 -57 -57 -64 -67 -54 -85 9 -17 8 -19 -3 -8 -17 16
-37 16 -21 0 16 -16 16 -41 0 -32 -10 5 -10 4 -1 -6 12 -13 37 -4 28 11 -4 5
3 9 15 9 19 0 20 2 6 15 -8 9 -13 22 -10 30 8 19 13 19 37 -2 15 -14 18 -15
16 -3 -2 8 1 17 6 19 24 11 32 26 21 36 -6 5 -9 9 -7 7 2 -1 15 5 28 13 13 9
23 12 23 8 1 -5 9 8 20 27 11 19 19 31 20 25 0 -5 12 4 26 20 l26 30 -21 -30
c-33 -50 -152 -180 -216 -237 -107 -94 -141 -118 -152 -107 -8 8 -13 7 -18 -2
-5 -8 -4 -10 3 -5 7 4 12 3 12 -2 0 -5 -24 -25 -52 -44 -56 -37 -107 -66 -96
-54 3 4 -3 17 -14 28 -16 16 -22 17 -36 6 -13 -9 -12 -7 2 9 19 23 36 22 36
-2 0 -17 31 -28 44 -15 7 7 3 10 -12 10 -12 0 -22 4 -22 9 0 5 11 8 25 7 14 0
25 -4 25 -8 0 -4 16 2 35 14 20 11 34 23 31 26 -3 3 -11 0 -18 -5 -17 -14 -67
-18 -103 -10 -11 3 -36 -4 -55 -14 -78 -41 -258 -103 -359 -124 -72 -14 -131
-9 -194 18 -21 9 -44 16 -50 14 -7 -1 -11 6 -11 15 1 14 -5 16 -30 13 -22 -3
-19 -1 9 6 270 71 400 120 620 232 296 152 553 355 710 562 56 74 165 273 165
302 0 9 3 14 6 10 3 -3 -6 -50 -20 -104z m-1106 87 c0 -5 -5 -10 -11 -10 -5 0
-7 5 -4 10 3 6 8 10 11 10 2 0 4 -4 4 -10z m-10 -366 c-8 -9 -19 -10 -35 -4
-14 5 -26 5 -34 -3 -12 -12 -21 -14 -104 -23 -45 -6 -61 -4 -68 7 -5 8 -9 9
-9 2 0 -6 -9 -9 -20 -6 -11 3 -18 9 -15 13 3 5 1 11 -5 15 -5 3 -10 1 -10 -5
0 -6 -5 -8 -10 -5 -6 4 -16 2 -23 -3 -9 -8 -12 -2 -12 21 0 35 16 54 80 95 22
14 65 44 95 66 30 23 81 57 115 77 l60 35 3 -134 c2 -87 -1 -139 -8 -148z
m-1143 170 c-16 -9 -31 -13 -34 -10 -3 3 5 10 18 15 37 15 47 12 16 -5z m-836
-51 c13 -16 12 -17 -3 -4 -10 7 -18 15 -18 17 0 8 8 3 21 -13z m668 -7 c-2 -2
-17 -6 -34 -10 -22 -5 -26 -4 -15 4 14 9 59 15 49 6z m-564 -84 c-3 -3 -11 0
-18 7 -9 10 -8 11 6 5 10 -3 15 -9 12 -12z m1512 -94 c-2 -18 -4 -6 -4 27 0
33 2 48 4 33 2 -15 2 -42 0 -60z m-960 66 c-3 -3 -12 -4 -19 -1 -8 3 -5 6 6 6
11 1 17 -2 13 -5z m-50 -10 c-3 -3 -12 -4 -19 -1 -8 3 -5 6 6 6 11 1 17 -2 13
-5z m-314 -21 c-7 -2 -19 -2 -25 0 -7 3 -2 5 12 5 14 0 19 -2 13 -5z m204 1
c-3 -3 -12 -4 -19 -1 -8 3 -5 6 6 6 11 1 17 -2 13 -5z m-94 -11 c-18 -2 -48
-2 -65 0 -18 2 -4 4 32 4 36 0 50 -2 33 -4z m1067 -48 c0 -30 -4 -55 -10 -55
-5 0 -10 12 -10 27 0 25 -1 26 -13 8 -8 -10 -19 -15 -25 -11 -16 9 -15 27 0
24 6 -2 14 6 16 17 3 16 28 43 40 45 1 0 2 -25 2 -55z m-737 -42 c-7 -2 -19
-2 -25 0 -7 3 -2 5 12 5 14 0 19 -2 13 -5z m-46 -9 c-3 -3 -12 -4 -19 -1 -8 3
-5 6 6 6 11 1 17 -2 13 -5z m-139 -21 c-10 -2 -26 -2 -35 0 -10 3 -2 5 17 5
19 0 27 -2 18 -5z m412 -33 c-8 -5 -22 -9 -30 -9 -10 0 -8 3 5 9 27 12 43 12
25 0z m7 -62 c-3 -7 -5 -2 -5 12 0 14 2 19 5 13 2 -7 2 -19 0 -25z m-177 18
c0 -2 -7 -6 -15 -10 -8 -3 -15 -1 -15 4 0 6 7 10 15 10 8 0 15 -2 15 -4z m143
-43 c-7 -2 -21 -2 -30 0 -10 3 -4 5 12 5 17 0 24 -2 18 -5z m1367 -448 c0 -5
-118 -65 -127 -65 -2 0 -1 5 2 10 3 6 0 10 -7 10 -9 1 -8 4 3 10 9 5 25 8 35
6 11 -2 35 4 54 15 40 21 40 21 40 14z m-755 -15 c-16 -4 -41 -8 -55 -8 -22 0
-22 1 5 8 17 4 41 8 55 8 22 0 22 -1 -5 -8z m-102 -17 c-7 -2 -21 -2 -30 0
-10 3 -4 5 12 5 17 0 24 -2 18 -5z m-2495 -525 c22 -43 204 -443 214 -470 5
-16 13 -28 17 -28 4 0 58 115 120 256 63 141 119 258 126 260 6 3 54 3 106 2
l94 -3 -40 -20 -40 -20 1 -75 c1 -131 34 -534 46 -563 7 -19 20 -30 39 -34 68
-13 18 -23 -121 -23 -139 0 -189 10 -122 23 50 10 53 33 37 275 -22 312 -18
306 -94 132 -158 -360 -187 -424 -197 -427 -6 -2 -69 124 -140 281 -71 156
-130 283 -132 281 -6 -6 -32 -350 -32 -429 0 -84 14 -116 52 -116 10 0 18 -4
18 -10 0 -6 -43 -10 -110 -10 -67 0 -110 4 -110 10 0 6 8 10 18 10 10 0 29 11
41 24 21 23 25 45 47 288 13 145 23 286 22 313 -3 46 -6 51 -36 67 -19 9 -36
19 -39 22 -4 3 41 6 99 6 98 0 105 -1 116 -22z m2456 -261 c145 -365 169 -416
206 -430 16 -6 30 -15 30 -19 0 -4 -67 -8 -150 -8 -93 0 -150 4 -150 10 0 6 9
10 20 10 11 0 27 11 35 24 14 22 13 29 -16 105 l-32 81 -122 0 -122 0 -25 -67
c-14 -38 -28 -75 -31 -84 -7 -23 20 -59 44 -59 10 0 19 -4 19 -10 0 -12 -207
-14 -214 -1 -3 5 7 11 23 14 49 10 47 7 254 514 60 148 76 171 117 172 10 0
45 -77 114 -252z m1597 227 c145 -46 230 -165 232 -324 2 -153 -62 -266 -188
-330 -66 -34 -72 -35 -179 -35 -106 0 -115 2 -178 33 -132 65 -195 181 -186
341 8 136 71 236 183 292 96 47 212 56 316 23z m1069 4 c252 -629 270 -668
306 -668 7 0 16 -4 19 -10 4 -6 -47 -10 -144 -10 -94 0 -151 4 -151 10 0 6 8
10 18 10 24 0 42 19 42 44 0 12 -12 54 -26 94 l-27 72 -122 0 -121 0 -27 -65
c-39 -95 -34 -145 15 -145 10 0 18 -4 18 -10 0 -6 -43 -10 -110 -10 -60 0
-110 2 -110 6 0 3 14 10 30 16 19 6 40 26 55 52 29 50 245 570 245 591 0 15
44 44 68 45 7 0 17 -10 22 -22z m-3110 -70 c0 -43 -4 -78 -8 -78 -4 0 -14 16
-21 35 -17 48 -43 62 -128 68 l-73 6 -2 -212 c-5 -382 0 -417 59 -417 12 0 23
-4 23 -10 0 -6 -59 -10 -156 -10 -143 0 -187 9 -115 23 48 10 52 40 50 345
l-1 272 -80 0 c-70 0 -82 -3 -103 -24 -13 -13 -27 -36 -31 -50 -12 -50 -24
-25 -24 52 l0 77 305 0 305 0 0 -77z m-710 2 c0 -38 -2 -70 -5 -70 -2 0 -13
17 -24 39 -11 21 -27 41 -36 45 -9 3 -66 6 -126 6 l-109 0 0 -130 0 -130 85 0
c86 0 135 13 135 36 0 7 5 16 10 19 6 4 10 -24 10 -77 l0 -83 -24 30 c-23 29
-27 30 -120 33 l-96 4 0 -130 c0 -72 3 -137 6 -146 5 -13 24 -16 105 -16 117
0 153 12 193 64 15 21 30 35 32 33 3 -3 -2 -37 -11 -76 l-17 -71 -264 0 c-169
0 -264 4 -264 10 0 6 9 10 20 10 11 0 29 9 40 20 19 19 20 33 20 303 0 308 -3
327 -56 327 -13 0 -24 5 -24 10 0 6 93 10 260 10 l260 0 0 -70z m1806 -165
c114 -129 212 -235 216 -235 4 0 8 89 8 199 0 185 -1 200 -21 225 -12 15 -30
26 -45 26 -13 0 -24 5 -24 10 0 6 45 10 116 10 74 0 113 -4 109 -10 -3 -5 -14
-10 -24 -10 -10 0 -26 -9 -36 -20 -15 -17 -18 -52 -23 -340 -5 -293 -6 -320
-22 -320 -15 0 -375 388 -462 498 l-28 35 0 -225 c0 -213 1 -227 21 -252 12
-15 30 -26 45 -26 13 0 24 -4 24 -10 0 -6 -45 -10 -115 -10 -110 0 -149 11
-85 24 57 11 62 43 58 339 l-3 259 -28 24 c-15 13 -37 24 -48 24 -10 0 -19 5
-19 10 0 6 36 10 89 10 l88 0 209 -235z m1564 227 c0 -4 -14 -12 -32 -17 -22
-7 -35 -18 -39 -35 -4 -14 -7 -148 -8 -297 -1 -260 0 -274 19 -293 11 -11 29
-20 40 -20 11 0 20 -4 20 -10 0 -6 -57 -10 -151 -10 -97 0 -148 4 -144 10 3 6
14 10 24 10 10 0 26 9 37 21 18 20 19 40 20 288 0 146 -4 281 -9 299 -7 25
-16 34 -38 39 -72 14 -29 23 110 23 83 0 151 -4 151 -8z m-2072 -986 c2 -10
-4 -26 -14 -37 -15 -17 -16 -22 -4 -44 16 -30 26 -32 33 -5 3 11 10 20 16 20
13 0 14 -20 1 -40 -6 -10 -4 -20 5 -30 13 -14 7 -16 -52 -18 -37 -1 -72 3 -80
9 -18 16 -16 59 3 81 13 13 14 21 5 32 -6 7 -8 21 -5 31 14 36 85 37 92 1z
m-2168 -66 c0 -53 -4 -90 -10 -90 -6 0 -10 37 -10 90 0 53 4 90 10 90 6 0 10
-37 10 -90z m165 18 l40 -73 3 73 c2 55 6 72 17 72 12 0 15 -18 15 -91 0 -88
-1 -90 -22 -87 -16 2 -34 23 -62 71 -21 37 -40 66 -42 65 -1 -2 -4 -34 -5 -71
-3 -100 -19 -81 -19 23 0 80 2 90 18 90 12 0 31 -24 57 -72z m197 -2 c12 -41
25 -73 29 -70 4 2 11 19 14 37 12 55 37 107 50 107 9 0 4 -26 -19 -90 -40
-115 -54 -117 -90 -14 -15 41 -30 82 -33 90 -3 8 1 14 11 14 11 0 22 -22 38
-74z m288 64 c0 -5 -17 -10 -39 -10 -33 0 -39 -3 -43 -25 -6 -31 -2 -35 39
-35 18 0 33 -4 33 -10 0 -5 -18 -10 -40 -10 -38 0 -40 -2 -40 -30 0 -29 2 -30
45 -30 25 0 45 -4 45 -10 0 -5 -25 -10 -55 -10 l-55 0 0 90 0 90 55 0 c30 0
55 -4 55 -10z m180 0 c0 -5 -15 -10 -34 -10 -47 0 -64 -23 -34 -44 12 -9 28
-16 34 -16 24 0 44 -35 36 -65 -8 -28 -12 -30 -60 -33 -35 -2 -52 1 -52 9 0 7
10 9 27 6 33 -6 63 8 63 29 0 8 -17 22 -37 31 -21 8 -41 20 -45 27 -12 17 -9
51 4 64 14 14 98 16 98 2z m210 0 c0 -5 -13 -10 -30 -10 l-30 0 0 -80 c0 -64
-3 -80 -15 -80 -12 0 -15 16 -15 80 l0 80 -30 0 c-16 0 -30 5 -30 10 0 6 32
10 75 10 43 0 75 -4 75 -10z m134 -57 c26 -77 32 -83 41 -41 14 65 36 108 56
108 21 0 22 -7 23 -112 1 -48 -3 -68 -11 -68 -9 0 -13 21 -13 72 0 39 -3 68
-7 64 -5 -4 -17 -35 -29 -69 -28 -85 -46 -85 -69 -2 -9 36 -21 65 -26 65 -5 0
-9 -29 -9 -65 0 -37 -4 -65 -10 -65 -6 0 -10 37 -10 91 0 87 1 90 22 87 16 -2
26 -17 42 -65z m316 57 c0 -5 -18 -10 -40 -10 -38 0 -40 -2 -40 -30 0 -28 3
-30 35 -30 19 0 35 -4 35 -10 0 -5 -17 -10 -37 -10 -35 0 -38 -2 -39 -30 -1
-29 0 -30 42 -30 24 0 44 -4 44 -10 0 -5 -25 -10 -55 -10 l-55 0 0 90 0 90 55
0 c30 0 55 -4 55 -10z m161 -63 c20 -38 39 -65 42 -60 4 6 5 37 3 71 -3 48 0
62 10 62 11 0 14 -20 14 -90 0 -83 -2 -90 -20 -90 -13 0 -30 20 -55 65 -20 36
-41 67 -46 71 -5 3 -9 -25 -9 -65 0 -104 -15 -87 -19 20 -2 89 -2 91 20 87 16
-2 33 -22 60 -71z m279 63 c0 -5 -13 -10 -30 -10 l-30 0 0 -80 c0 -47 -4 -80
-10 -80 -6 0 -10 33 -10 80 l0 80 -30 0 c-16 0 -30 5 -30 10 0 6 30 10 70 10
40 0 70 -4 70 -10z m560 0 c0 -5 -18 -10 -39 -10 -67 0 -94 -68 -50 -125 18
-22 28 -26 50 -21 16 3 29 1 29 -4 0 -6 -20 -10 -43 -10 -60 0 -82 25 -82 92
0 40 5 53 24 69 25 20 111 27 111 9z m210 -12 c23 -25 27 -82 9 -122 -7 -14
-26 -30 -44 -36 -87 -29 -144 72 -89 158 20 31 94 31 124 0z m176 -50 l39 -71
3 71 c2 55 6 72 17 72 12 0 15 -18 15 -91 0 -87 -1 -90 -22 -87 -14 2 -32 23
-56 66 -18 34 -38 62 -43 62 -5 0 -9 -29 -9 -65 0 -37 -4 -65 -10 -65 -6 0
-10 37 -10 90 0 81 2 90 18 90 13 0 31 -23 58 -72z m264 63 c0 -6 -19 -11 -42
-13 -62 -4 -64 -32 -4 -58 39 -16 46 -24 46 -47 0 -15 -4 -33 -8 -39 -16 -25
-102 -26 -102 -2 0 6 9 8 21 5 29 -8 69 9 69 28 0 8 -12 21 -27 27 -59 25 -81
66 -51 96 14 14 98 16 98 3z m100 -54 c0 -76 14 -100 55 -95 l30 3 3 78 c2 59
6 77 17 77 12 0 15 -16 15 -73 0 -62 -3 -77 -20 -92 -28 -25 -88 -25 -106 0
-16 22 -20 165 -4 165 6 0 10 -28 10 -63z m230 -17 l0 -80 40 0 c22 0 40 -4
40 -10 0 -5 -22 -10 -50 -10 l-50 0 0 90 c0 53 4 90 10 90 6 0 10 -33 10 -80z
m270 70 c0 -5 -13 -10 -30 -10 l-30 0 0 -80 c0 -47 -4 -80 -10 -80 -6 0 -10
33 -10 80 l0 80 -35 0 c-19 0 -35 5 -35 10 0 6 32 10 75 10 43 0 75 -4 75 -10z
m100 -80 c0 -67 -3 -90 -13 -90 -10 0 -14 24 -16 90 -2 76 0 90 13 90 13 0 16
-15 16 -90z m149 43 c12 -27 31 -59 41 -73 l20 -25 0 73 c0 52 4 72 13 72 10
0 12 -20 9 -87 -2 -49 -6 -90 -8 -93 -11 -11 -41 21 -72 79 -19 34 -36 61 -38
59 -1 -2 -4 -34 -6 -71 -1 -37 -6 -67 -9 -67 -3 0 -9 30 -12 68 -11 107 -10
112 16 112 18 0 29 -11 46 -47z m301 37 c0 -5 -18 -10 -39 -10 -30 0 -44 -6
-55 -22 -36 -51 -7 -121 47 -116 25 2 33 8 35 26 3 17 -2 25 -17 29 -31 8 -25
23 9 23 29 0 30 -2 30 -45 0 -40 -3 -47 -27 -56 -34 -13 -76 -3 -99 23 -29 31
-26 114 5 139 25 20 111 27 111 9z m-4597 -87 c-51 -2 -136 -2 -190 0 -54 1
-12 3 92 3 105 0 149 -2 98 -3z m5080 0 c-51 -2 -136 -2 -190 0 -54 1 -12 3
92 3 105 0 149 -2 98 -3z"/>
<path d="M3815 6939 c-4 -6 -5 -12 -2 -15 2 -3 7 2 10 11 7 17 1 20 -8 4z"/>
<path d="M4310 5860 c-8 -5 -10 -10 -5 -10 6 0 17 5 25 10 8 5 11 10 5 10 -5
0 -17 -5 -25 -10z"/>
<path d="M4510 5836 c0 -2 7 -7 16 -10 8 -3 12 -2 9 4 -6 10 -25 14 -25 6z"/>
<path d="M4478 5823 c7 -3 16 -2 19 1 4 3 -2 6 -13 5 -11 0 -14 -3 -6 -6z"/>
<path d="M4459 5807 c5 -5 24 -7 42 -5 33 3 33 4 -8 8 -23 3 -39 2 -34 -3z"/>
<path d="M5950 6580 c0 -5 5 -10 11 -10 5 0 7 5 4 10 -3 6 -8 10 -11 10 -2 0
-4 -4 -4 -10z"/>
<path d="M5805 6410 c-3 -5 -1 -10 4 -10 6 0 11 5 11 10 0 6 -2 10 -4 10 -3 0
-8 -4 -11 -10z"/>
<path d="M5780 6359 l-35 -30 37 23 c21 13 38 26 38 31 0 10 -2 9 -40 -24z"/>
<path d="M6005 6080 c-3 -6 1 -7 9 -4 18 7 21 14 7 14 -6 0 -13 -4 -16 -10z"/>
<path d="M6015 6040 c-3 -5 -1 -10 4 -10 6 0 11 5 11 10 0 6 -2 10 -4 10 -3 0
-8 -4 -11 -10z"/>
<path d="M3441 6264 c0 -11 3 -14 6 -6 3 7 2 16 -1 19 -3 4 -6 -2 -5 -13z"/>
<path d="M6492 5818 c-30 -28 -39 -57 -16 -50 9 2 59 82 52 82 -2 0 -19 -14
-36 -32z"/>
<path d="M6289 5493 c-13 -16 -12 -17 4 -4 16 13 21 21 13 21 -2 0 -10 -8 -17
-17z"/>
<path d="M6200 5415 c7 -8 17 -12 22 -9 6 4 5 10 -3 15 -22 14 -33 10 -19 -6z"/>
<path d="M6102 5379 c4 -12 48 -46 48 -37 0 2 -12 15 -26 27 -15 13 -24 17
-22 10z"/>
<path d="M6066 5354 c-3 -9 1 -14 14 -14 10 0 24 -8 29 -17 6 -10 11 -13 11
-7 0 6 -11 20 -24 31 -20 17 -26 19 -30 7z"/>
<path d="M6070 5321 c0 -5 7 -12 16 -15 14 -5 15 -4 4 9 -14 17 -20 19 -20 6z"/>
<path d="M6026 5279 c4 -8 -1 -9 -17 -5 l-24 7 23 -14 c12 -7 19 -17 15 -23
-4 -5 1 -2 11 8 18 16 15 38 -5 38 -6 0 -7 -5 -3 -11z"/>
<path d="M5215 5130 c-3 -6 1 -7 9 -4 18 7 21 14 7 14 -6 0 -13 -4 -16 -10z"/>
<path d="M4995 5790 c-3 -5 -1 -10 4 -10 6 0 11 5 11 10 0 6 -2 10 -4 10 -3 0
-8 -4 -11 -10z"/>
<path d="M4722 4256 l-50 -126 99 0 c60 0 99 4 99 10 0 11 -74 201 -88 226 -7
12 -23 -18 -60 -110z"/>
<path d="M6355 4509 c-112 -33 -172 -224 -131 -418 30 -140 100 -216 200 -215
113 2 175 76 198 234 14 101 -1 201 -42 285 -32 67 -66 97 -126 114 -45 13
-58 13 -99 0z"/>
<path d="M7492 4283 c-22 -54 -44 -110 -47 -125 l-7 -28 100 0 101 0 -50 123
c-28 67 -52 123 -54 125 -1 1 -21 -41 -43 -95z"/>
<path d="M5037 3553 c-11 -10 -8 -41 4 -49 6 -3 18 1 27 9 13 13 13 19 2 31
-14 17 -23 20 -33 9z"/>
<path d="M5017 3463 c-12 -11 -7 -40 8 -53 12 -10 21 -10 41 -1 l26 11 -24 25
c-23 25 -39 31 -51 18z"/>
<path d="M5526 3528 c-23 -33 -20 -75 8 -103 25 -25 44 -25 74 -2 15 12 16 99
0 115 -20 20 -65 14 -82 -10z"/>
</g>
</svg>
